<svg width="750" height="248" version="1.1" viewBox="0 0 198.44 65.617" xmlns="http://www.w3.org/2000/svg">
<g transform="translate(133.05 -228.66)">
<g transform="matrix(.40355 0 0 .64241 -79.966 160.85)" fill="#739a35" stroke-width=".26458">
<path d="m360.18 106.08c-32.024 1.0902-60.91 3.6979-73.684 5.3526-45.383 5.8792-131.83 30.665-188.13 30.665v53.501h261.82z"/>
<path d="m-131.55 106.06v89.519h230.47v-53.501c-46.567 0-105.25-29.759-156.32-34.656-22.323-2.1401-49.288-2.2087-74.154-1.3622z"/>
</g>
<path d="m65.385 260.03c-18.792 0-42.311-19.118-62.922-22.263-20.611-3.1455-50.438 0.67525-59.595 2.5637-18.314 3.7769-53.198 19.7-75.921 19.7v34.241h198.44z" fill="#567237" stroke-width=".13471"/>
</g>
</svg>
