<svg width="494.9" height="238.63" version="1.1" viewBox="0 0 130.94 63.138" xml:space="preserve" xmlns="http://www.w3.org/2000/svg" xmlns:xlink="http://www.w3.org/1999/xlink"><defs><linearGradient id="linearGradient996" x1="-92.713" x2="-92.713" y1="161.43" y2="185.21" gradientUnits="userSpaceOnUse" xlink:href="#PS2_Logo_Gradient"/><linearGradient id="PS2_Logo_Gradient"><stop stop-color="#4c3086" offset="0"/><stop stop-color="#04a9d6" offset="1"/></linearGradient><linearGradient id="linearGradient1035" x1="-60.857" x2="-52.135" y1="-114.19" y2="-142.44" gradientUnits="userSpaceOnUse"><stop stop-color="#ffb300" offset="0"/><stop stop-color="#ffb300" offset=".27495"/><stop stop-color="#35a97d" offset=".27495"/><stop stop-color="#35a97d" offset=".76445"/><stop stop-color="#3a5ba8" offset=".76445"/><stop stop-color="#3a5ba8" offset="1"/></linearGradient><linearGradient id="linearGradient1076" x1="221.88" x2="230.94" y1="112.27" y2="112.8" gradientTransform="matrix(.73802 0 0 .83027 17.6 183.97)" gradientUnits="userSpaceOnUse" xlink:href="#PS2_Logo_Gradient"/></defs><g transform="translate(-62.101 -84.394)"><g transform="matrix(.56351 0 0 .56351 80.108 -22.678)"><g fill="none" stroke-linecap="round"><g stroke="#000" stroke-width="2.5"><path d="m114.73 241.83-18.963 19.093"/><path d="m81.485 245.85 14.894 15.615"/><path d="m180.75 240.13s18.447 11.85 18.417 14.99c-0.0293 3.1407 0 16.276 0 16.276"/><path d="m-12.289 241.91s-18.447 11.85-18.417 14.99c0.0293 3.1407 0 16.276 0 16.276"/></g><g stroke="#050506" stroke-width="2.5"><path d="m12.646 265.46v35.341"/><path d="m128.82 264.84s-1.7645 10.782-1.7973 16.702c-0.0328 5.9205 2.4292 14.909 2.4292 14.909"/><path d="m48.279 264.84s1.7645 10.782 1.7973 16.702c0.0328 5.9205-2.4292 14.909-2.4292 14.909"/><path d="m166.39 264.84v35.341"/></g><path d="m-6.5131 281.47s-7.9999-0.0146-8.8849 0c-0.88499 0.0146-1.5761-3.0205-1.5761-3.0205h8.7234z" stroke="#cdcdcd" stroke-linejoin="round" stroke-width=".72992"/></g><g><path d="m65.437 229.42s11.529 0.0191 12.804 0c1.2754-0.0191 2.2714 3.9341 2.2714 3.9341h-12.571z" fill="#cdcdcd"/><path d="m-2.0953 229.41s-11.529 0.0191-12.804 0-2.2714 3.9341-2.2714 3.9341h12.571z" fill="#cdcdcd"/><path d="m68.185 282.01-73.966-2.5e-4c-1.2572 0-1.9023-3.8693-2.9955-3.8752-1.4987-8e-3 -8.5746 1.6e-4 -8.5746 1.6e-4s-5.7151-8.2323-5.6118-23.128c0.10327-14.896 5.6118-23.129 5.6118-23.129s7.8057-0.0217 8.5746 3e-4c1.2301 0.0352 1.7066-3.163 2.9955-3.163h73.966c1.5359 0 2.1789 3.5996 2.8972 3.5766 0.93524-0.03 10.838-1.8e-4 10.838-1.8e-4s4.6248 9.6212 4.9092 22.715c0.28438 13.094-4.9092 23.9-4.9092 23.9s-9.8272 0.0203-10.838 5.3e-4c-1.0109-0.0199-1.6435 3.1028-2.8972 3.1028z" fill="#161616"/></g><circle cx="31.579" cy="255.55" r="22.828" fill="none" stroke="#b5b5b5" stroke-width="1.065"/><g transform="matrix(.63259 0 0 .33945 -37.062 212.49)" fill="none" stroke-linecap="square" stroke-width=".9562"><path d="m78.903 134.94v-9.2604h18.446l5.47e-4 -8.788h-18.447" stroke="#fff"/><path d="m99.041 134.47h9.3443v-17.474h9.1026" stroke="#f4f4f4"/><path d="m119.83 134.94v-9.2604h18.446l5.5e-4 -8.788h-18.447" stroke="#fff"/></g><g><path d="m187.68 281.34v-82.352h-16.067v82.352z" fill="#121212"/><path d="m183.28 281.34v-91.329h-16.067v91.329z" fill="#1b1b1b"/><path d="m169.16 281.34v-91.329h-58.119v91.329z" fill="#282828"/></g><g transform="matrix(.33537 0 0 .39238 172.57 155.77)" fill="none" stroke="url(#linearGradient996)" stroke-linecap="square" stroke-width="3"><path d="m-160.63 183.41v-10.29h39.556v-10.557h-40.224"/><path d="m-119.47 183.41 20.312-1e-5v-20.847h20.446"/><path d="m-29.533 183.41h-39.957v-10.424h39.823v-10.557h-40.09"/></g><g transform="matrix(0 -.071794 .071794 0 186.2 215.7)"><path d="m-52.822-114.05 30.522-10.961s1.4015-0.67691 2.0789-1.0394 1.4464-0.67732 1.9844-1.1339 0.96456-0.9083 1.2284-1.5119 0.35972-1.3006 0.28348-1.9844c-0.0762-0.68376-0.25394-1.4005-0.75595-1.9844s-1.2019-0.7701-2.1734-1.2284-2.5322-1.0442-3.6853-1.4174-2.0785-0.59624-3.2128-0.85045-2.2822-0.49786-3.5908-0.66145-2.8498-0.23678-4.2522-0.28348-3.0386-0.062-4.1577 0-1.6217 0.15926-2.5513 0.28348-1.8405 0.24276-3.0238 0.47247-2.9936 0.67096-4.0632 0.94494-2.3624 0.66146-2.3624 0.66146l-23.529 8.6934s-1.3058 0.29381-2.0789 0.37797c-0.7731 0.0842-1.8105 0.0993-2.5513 0.0945-0.74087-5e-3 -1.1941-5e-3 -1.8899-0.0945-0.69576-0.0893-1.8292-0.1667-2.2679-0.47247s-0.40112-0.50716-0.47247-0.75595c-0.0713-0.24879-0.11244-0.44297 0-0.66146s0.34935-0.29113 0.66146-0.47247 1.2284-0.56696 1.2284-0.56696l26.647-9.5439-9.0714-3.7798-24.663 8.5045s-1.4638 0.70983-2.2679 1.1339-1.9496 0.92615-2.5513 1.4174-0.81315 0.81514-1.1339 1.3229-0.72898 1.1423-0.75595 1.7009c-0.027 0.55858 0.1425 0.8835 0.47247 1.4174s0.9794 1.1894 1.6064 1.6064 1.2285 0.50378 2.0789 0.85045 1.9206 0.86087 3.0238 1.2284 2.3598 0.70713 3.5908 0.94494 2.3451 0.70724 3.638 0.8032c1.293 0.096 2.2895 0.22914 3.5813 0.29294s2.8478-0.17512 4.3089-0.24569c1.4612-0.0706 3.4333-0.52908 4.9137-0.85045 1.4804-0.32137-1.1892 0.49089 3.9688-1.0394s26.742-8.8824 26.742-8.8824 1.2125-0.33107 1.7954-0.47248 1.1477-0.30073 1.7009-0.37797c0.55323-0.0772 1.1337-0.0806 1.6064-0.0945s0.83469 0 1.2284 0c0.39372 0 0.7291-0.0889 1.1339 0s0.95188 0.35489 1.2284 0.56697 0.39307 0.34765 0.47247 0.56696 0.0312 0.43874 0 0.66146 0.0287 0.39097-0.18899 0.66146c-0.21765 0.27049-1.2284 0.66146-1.2284 0.66146l-34.207 11.906z" fill="url(#linearGradient1035)"/><path d="m-52.633-113.95-12.851-4.0632 0.0945-56.791s13.649 3.0964 20.127 5.6696c1.4534 0.57733 2.86 1.3008 4.1577 2.1734 1.3354 0.8979 2.5837 1.9452 3.6853 3.1183 1.0479 1.1159 1.8453 2.1617 2.5041 3.5435 0.60168 1.2619 1.0286 2.829 1.2757 4.205 0.31904 1.7769 0.54341 3.581 0.56696 5.3862 0.0157 1.2006-0.0158 2.4203-0.28348 3.5908-0.27125 1.186-0.76797 2.3191-1.3229 3.4018-0.34271 0.66864-0.72011 1.3366-1.2284 1.8899-0.48594 0.52893-0.97646 0.99743-1.5591 1.4174-0.55278 0.39843-1.1972 0.82108-1.8426 1.0394-0.92687 0.31356-1.9545 0.27323-2.9293 0.18898-0.93619-0.0809-1.8577-0.33902-2.7403-0.66145-0.86002-0.31417-2.4568-1.7576-2.4568-1.7576v-20.165s-0.62263-1.1455-1.0394-1.6064-0.99762-0.93831-1.4174-1.1339-0.63114-0.22378-0.94493-0.18899c-0.3138 0.0348-0.54916 0.14815-0.85045 0.37798s-0.85045 1.0394-0.85045 1.0394z" fill="#fe0000"/></g><path d="m183.92 280.44h3.1384v-6.0734h-3.1384z" fill="url(#linearGradient1076)"/><g fill="none" stroke="#000"><path d="m184.71 280v-2.0398" stroke-width=".83027"/><path d="m186.03 280v-2.0398" stroke-width=".83027"/><path d="m184.71 276.93v-1.2553" stroke-width=".65132"/></g></g></g></svg>
